<svg width="153" height="74" viewBox="0 0 153 74" fill="none" xmlns="http://www.w3.org/2000/svg">
<path d="M11.2472 49.32V62.45L9.45321 64.244H5.37121L3.05721 61.956L1.00321 64.01L3.96721 67H10.8572L14.3152 63.568V49.32H11.2472ZM32.9706 67H36.2726L29.1226 49.32H26.0806L18.9566 67H22.1026L23.6106 63.048H31.4626L32.9706 67ZM24.6766 60.318L27.5366 52.83L30.3966 60.318H24.6766ZM56.5569 67L48.1849 57.9L56.1409 49.32H52.4229L44.8309 57.51V49.32H41.7629V67H44.8309V58.55L52.5789 67H56.5569ZM75.3957 52.076V49.32H61.6417V67H75.3957V64.244H64.7097V59.46H74.0957V56.73H64.7097V52.076H75.3957ZM106.24 67L102.21 63.1L104.394 60.916L102.496 59.018L100.286 61.202L97.5044 58.498L99.1944 57.64L101.014 55.82V51.712L98.6224 49.32H93.1624L90.7704 51.712V55.69L93.0324 57.9L91.3684 58.732L89.4184 60.656V64.556L91.8624 67H98.3104L100.338 64.972L102.418 67H106.24ZM93.5784 54.676V52.778L94.5924 51.764H97.1924L98.2064 52.778V54.754L97.1924 55.794L95.5804 56.626L93.5784 54.676ZM96.9584 64.53H93.2664L92.3304 63.594V61.618L93.3704 60.604L94.9824 59.772L98.3884 63.1L96.9584 64.53ZM128.614 49.32V62.45L126.82 64.244H122.738L120.424 61.956L118.37 64.01L121.334 67H128.224L131.682 63.568V49.32H128.614ZM151.7 49.32H137.062V52.076H142.834V67H145.902V52.076H151.7V49.32Z" fill="white"/>
<rect x="45" width="27" height="6" fill="#EF4025"/>
<rect x="77" width="27" height="6" fill="#EF4025"/>
<rect x="83" width="27" height="6" transform="rotate(90 83 0)" fill="#EF4025"/>
<rect x="104" width="27" height="6" transform="rotate(90 104 0)" fill="#EF4025"/>
<rect x="45" y="10.5" width="27" height="6" fill="#EF4025"/>
<rect x="45" y="21" width="27" height="6" fill="#EF4025"/>
<rect x="77" y="21" width="27" height="6" fill="#EF4025"/>
</svg>
